# xmcd
#
# Track frame offsets: 
#        150
#        15428
#        40048
#        60323
#        80765
#        92220
#        119320
#        130530
#        152188
#
# Disc length: 2236 seconds
#
# Revision: 5
# Processed by: cddbd v1.5.2PL0 Copyright (c) Steve Scherf et al.
# Submitted via: ExactAudioCopy v0.99pb5
#
DISCID=6408ba09
DTITLE=Roy Buchanan - That's What I Am Here For (JP-Import)
DYEAR=1973
DGENRE=Blues
TTITLE0=My Baby Says She's Gonna Leave Me
TTITLE1=Hey Joe
TTITLE2=Home Is Where I Lost Her
TTITLE3=Rodney's Song
TTITLE4=That's What I Am Here For
TTITLE5=Roy's Bluz
TTITLE6=Voices
TTITLE7=Please Don't Turn Me Away
TTITLE8=Nephesh
EXTD=YEAR: 1973
EXTT0=
EXTT1=
EXTT2=
EXTT3=
EXTT4=
EXTT5=
EXTT6=
EXTT7=
EXTT8=
PLAYORDER=
